<svg width="200" height="63" fill="none" xmlns="http://www.w3.org/2000/svg"><path d="M.705 41.265V19.488h3.96v21.777H.705zm10.533-15.884c0-2.248-.043-4.092-.18-5.893h3.466l.177 3.51h.137c1.214-2.069 3.24-4.004 6.841-4.004 2.97 0 5.218 1.8 6.162 4.365h.092c.672-1.216 1.529-2.16 2.428-2.834 1.304-.992 2.743-1.53 4.815-1.53 2.875 0 7.155 1.887 7.155 9.45v12.82h-3.87V28.94c0-4.184-1.533-6.704-4.726-6.704-2.248 0-4.006 1.664-4.678 3.597a6.533 6.533 0 00-.317 1.981v13.452h-3.869V28.217c0-3.462-1.528-5.982-4.543-5.982-2.475 0-4.276 1.978-4.904 3.96-.224.583-.316 1.257-.316 1.934v13.136h-3.87V25.381zm41.458 3.286c0-.538.137-1.125.272-1.62.766-2.968 3.282-4.904 5.984-4.904 4.186 0 6.478 3.736 6.478 8.1 0 4.994-2.43 8.412-6.613 8.412-2.835 0-5.22-1.887-5.94-4.633-.09-.496-.18-1.036-.18-1.62l-.001-3.735zm-3.912 21.506h3.912V38.341h.092c1.304 2.158 3.822 3.419 6.704 3.419 5.13 0 9.9-3.87 9.9-11.697 0-6.616-3.962-11.069-9.226-11.069-3.556 0-6.119 1.576-7.737 4.23h-.093l-.18-3.736h-3.552c.088 2.07.18 4.322.18 7.11v23.575zm43.833-14.846c0 2.25.047 4.23.18 5.938h-3.509l-.224-3.553h-.091c-1.032 1.755-3.326 4.048-7.2 4.048-3.416 0-7.512-1.889-7.512-9.54V19.489h3.96v12.057c0 4.142 1.26 6.932 4.86 6.932 2.655 0 4.499-1.846 5.22-3.601.238-.648.36-1.334.357-2.024V19.488h3.96l-.001 15.839zm6.586-26.006h3.961v31.944h-3.961V9.321zm10.082 27.895c1.171.766 3.24 1.576 5.22 1.576 2.882 0 4.228-1.44 4.228-3.24 0-1.889-1.124-2.924-4.048-4.007-3.916-1.394-5.757-3.553-5.757-6.164 0-3.508 2.832-6.387 7.512-6.387 2.203 0 4.14.629 5.357 1.35l-.993 2.88a8.47 8.47 0 00-4.454-1.26c-2.342 0-3.646 1.35-3.646 2.97 0 1.798 1.304 2.608 4.14 3.689 3.78 1.44 5.715 3.33 5.715 6.568 0 3.825-2.97 6.524-8.146 6.524-2.383 0-4.59-.585-6.118-1.484l.99-3.015z" fill="#161615"/><path d="M5.627 13.13A2.813 2.813 0 110 13.128a2.813 2.813 0 015.627.003v-.001z" fill="#FFB900"/><path d="M192.342 19.237h-11.534v32.676h-7.745V19.237h-11.59V12.34h30.869v6.897zM156.67 51.913h-7.744V12.34h7.744v39.573zM137.162 0v62.836H200V0h-62.838z" fill="#FFF23B"/></svg>