<svg width="369" height="261" fill="none" xmlns="http://www.w3.org/2000/svg"><path d="M176.966 144.94c-4.005 6.593-5.018 13.986-8.697 20.52-2.923 5.193-6.176 9.252-10.921 12.758-4.23 3.127-8.347 5.704-11.782 9.83-3.663 4.405-5.957 9.819-9.371 14.385-3.02 4.039-7.287 7.533-9.716 11.782-1.293 2.263-.055 4.402 1.527 6.827 1.077 1.65 2.649 3.622 4.519 4.342 3.608 1.392 6.585-3.144 8.759-5.506 3.268-3.551 6.533-6.982 10.079-10.26 7.836-7.238 15.132-15.1 22.275-23.006 4.49-4.967 7.58-11.181 12.265-15.947 3.556-3.616 7.871-6.351 11.593-9.783 4.976-4.586 9.463-9.015 13.285-14.733" fill="#DBA16D"/><path d="M176.966 144.94c-4.005 6.593-5.018 13.986-8.697 20.52-2.923 5.193-6.176 9.252-10.921 12.758-4.23 3.127-8.347 5.704-11.782 9.83-3.663 4.405-5.957 9.819-9.371 14.385-3.02 4.039-7.287 7.533-9.716 11.782-1.293 2.263-.055 4.402 1.527 6.827 1.077 1.65 2.649 3.622 4.519 4.342 3.608 1.392 6.585-3.144 8.759-5.506 3.268-3.551 6.533-6.982 10.079-10.26 7.836-7.238 15.132-15.1 22.275-23.006 4.49-4.967 7.58-11.181 12.265-15.947 3.556-3.616 7.871-6.351 11.593-9.783 4.976-4.586 9.463-9.015 13.285-14.733" stroke="#DDBA92" stroke-width=".25" stroke-miterlimit="20"/><path d="M108.43 227.095c-1.684.703-4.057 2.592-3.769 4.53.247 1.672 1.725 3.258 2.718 4.608.998 1.356 2.194 2.608 3.18 3.945 1.023 1.384 2.047 3.066 3.265 4.393 5.294 5.77 7.894 15.21 17.265 15.21 2.116 0 4.305.12 6.358-.001 2.428-.142 2.065-2.924 1.159-4.513-4.295 3.427-12.148-1.317-14.92-4.976-2.217-2.925-3.278-6.946-4.945-10.211-1.042-2.043-2.271-3.88-3.683-5.684-.882-1.128-2.299-2.236-2.744-3.633" fill="#02BA92"/><path d="M108.43 227.095c-1.684.703-4.057 2.592-3.769 4.53.247 1.672 1.725 3.258 2.718 4.608.998 1.356 2.194 2.608 3.18 3.945 1.023 1.384 2.047 3.066 3.265 4.393 5.294 5.77 7.894 15.21 17.265 15.21 2.116 0 4.305.12 6.358-.001 2.428-.142 2.065-2.924 1.159-4.513-4.295 3.427-12.148-1.317-14.92-4.976-2.217-2.925-3.278-6.946-4.945-10.211-1.042-2.043-2.271-3.88-3.683-5.684-.882-1.128-2.299-2.236-2.744-3.633" stroke="#fff" stroke-width=".25" stroke-miterlimit="20"/><path d="M118.246 219.977c-1.778 1.766-4.397 2.719-6.499 4.046-1.129.715-3.806 2.084-3.751 3.719.031.93.952 1.665 1.513 2.292a16.75 16.75 0 011.936 2.663c1.486 2.522 3.259 4.738 4.527 7.365 1.177 2.435 2.54 4.777 3.677 7.23 1.016 2.193 1.856 4.492 3.532 6.259 3.201 3.37 8.729 5.037 13.295 4.372 1.456-.212 3.76-1.195 2.292-3-.579-.712-1.647-.993-2.4-1.53-.86-.612-1.562-1.548-2.318-2.266-1.667-1.581-2.333-2.52-2.422-4.836-.08-2.1.342-4.25.126-6.36-.234-2.288-.505-4.72.299-6.908.568-1.545 2.522-3.824 2.357-5.48-.9.029-1.802.658-2.761.763-1.469.162-3.132-.214-4.554-.645-1.925-.582-6.202-2.341-6.26-4.881" fill="#00476D"/><path d="M118.246 219.977c-1.778 1.766-4.397 2.719-6.499 4.046-1.129.715-3.806 2.084-3.751 3.719.031.93.952 1.665 1.513 2.292a16.75 16.75 0 011.936 2.663c1.486 2.522 3.259 4.738 4.527 7.365 1.177 2.435 2.54 4.777 3.677 7.23 1.016 2.193 1.856 4.492 3.532 6.259 3.201 3.37 8.729 5.037 13.295 4.372 1.456-.212 3.76-1.195 2.292-3-.579-.712-1.647-.993-2.4-1.53-.86-.612-1.562-1.548-2.318-2.266-1.667-1.581-2.333-2.52-2.422-4.836-.08-2.1.342-4.25.126-6.36-.234-2.288-.505-4.72.299-6.908.568-1.545 2.522-3.824 2.357-5.48-.9.029-1.802.658-2.761.763-1.469.162-3.132-.214-4.554-.645-1.925-.582-6.202-2.341-6.26-4.881" stroke="#DDBA92" stroke-width=".25" stroke-miterlimit="20"/><path d="M171.471 153.636c-4.104-1.465-2.272 10.574-2.194 12.092.122 2.385-.149 4.685-.342 7.022-.215 2.618-.237 5.11-.725 7.702-.731 3.898-1.189 7.588.365 11.32.796 1.913 1.745 3.778 2.513 5.705.48 1.2 1.011 3.022 2.122 3.78.583.398 1.611.444 2.157.04.978-.722.077-1.7-.459-2.511-2.434-3.681-2.712-7.57-2.712-11.91 0-6.25.704-12.43 1.381-18.638.466-4.27.191-8.711-1.291-12.791" fill="#10608D"/><path d="M176.452 153.184c-1.439-.35-3.105-.671-4.599-.343-1.9.418-.652 2.438-.654 3.879-.005 4.238-.463 8.378-.654 12.563-.19 4.17.133 8.455-.251 12.615-.292 3.146-.633 6.96.072 10.007.581 2.506 1.774 4.969 2.982 7.2.55 1.017.916 2.004 2.018 2.175 1.131.175 1.956-.37 2.16-1.518-2.039-1.446-2.012-4.607-2.254-6.823-.349-3.21-1.08-6.242-.898-9.508.269-4.823 2.382-9.268 3.46-13.934.631-2.731.875-5.564.634-8.358-.142-1.647-.475-3.22-.475-4.876" fill="#02BA92"/><path d="M176.452 153.184c-1.439-.35-3.105-.671-4.599-.343-1.9.418-.652 2.438-.654 3.879-.005 4.238-.463 8.378-.654 12.563-.19 4.17.133 8.455-.251 12.615-.292 3.146-.633 6.96.072 10.007.581 2.506 1.774 4.969 2.982 7.2.55 1.017.916 2.004 2.018 2.175 1.131.175 1.956-.37 2.16-1.518-2.039-1.446-2.012-4.607-2.254-6.823-.349-3.21-1.08-6.242-.898-9.508.269-4.823 2.382-9.268 3.46-13.934.631-2.731.875-5.564.634-8.358-.142-1.647-.475-3.22-.475-4.876" stroke="#fff" stroke-width=".25" stroke-miterlimit="20"/><path d="M251.118 135.522c6.195 6.629 9.288 14.89 14.055 22.469 1.901 3.022 3.166 6.746 2.864 10.62-.443 5.68-4.987 7.919-9.849 8.643-12.572 1.87-25.413-1.337-37.745-2.604-9.574-.982-18.84-.966-28.018-2.227-.722-.1-1.425.268-2.143.36-.087.093-.081.098.018.019 2.052-4.604.94-10.545 2.407-15.26 2.55-1.025 6.373-.115 9.084.013 3.507.167 7.332.178 10.922.187 3.835.013 7.823-1.768 11.459-3.071 2.873-1.032 6.079-.35 8.57-2.315-2.105-1.436-4.807-1.12-7.228-1.867-2.67-.822-5.093-2.968-6.52-5.548" fill="#DBA16D"/><path d="M251.118 135.522c6.195 6.629 9.288 14.89 14.055 22.469 1.901 3.022 3.166 6.746 2.864 10.62-.443 5.68-4.987 7.919-9.849 8.643-12.572 1.87-25.413-1.337-37.745-2.604-9.574-.982-18.84-.966-28.018-2.227-.722-.1-1.425.268-2.143.36-.087.093-.081.098.018.019 2.052-4.604.94-10.545 2.407-15.26 2.55-1.025 6.373-.115 9.084.013 3.507.167 7.332.178 10.922.187 3.835.013 7.823-1.768 11.459-3.071 2.873-1.032 6.079-.35 8.57-2.315-2.105-1.436-4.807-1.12-7.228-1.867-2.67-.822-5.093-2.968-6.52-5.548" stroke="#DDBA92" stroke-width=".25" stroke-miterlimit="20"/><path d="M186.416 155.719c1.918.158 3.762.454 5.616.634 1.184.115 3.446-.458 4.347.182 1.161.825-.564 3.607-.818 4.708-.477 2.079-.717 3.99-.198 6.07.328 1.312 1.402 3.228 1.29 4.622-.152 1.903-2.513 1.075-3.806 1.262-.597.084-1.451.717-1.991.71-.598-.007-1.66-.81-2.195-1.16-1.78-1.161-3.543-3.138-4.487-5.087-1.855-3.826-.779-7.84 1.246-11.307" fill="#00006D"/><path d="M186.416 155.719c1.918.158 3.762.454 5.616.634 1.184.115 3.446-.458 4.347.182 1.161.825-.564 3.607-.818 4.708-.477 2.079-.717 3.99-.198 6.07.328 1.312 1.402 3.228 1.29 4.622-.152 1.903-2.513 1.075-3.806 1.262-.597.084-1.451.717-1.991.71-.598-.007-1.66-.81-2.195-1.16-1.78-1.161-3.543-3.138-4.487-5.087-1.855-3.826-.779-7.84 1.246-11.307" stroke="#00BA92" stroke-width=".25" stroke-miterlimit="20"/><path d="M201.603 92.53c-2.138 2.19-4.715 3.316-6.581 5.795-1.534 2.037-3.063 4.283-4.236 6.522-2.589 4.947-3.541 10.184-4.152 15.692-.516 4.65-1.313 8.252-3.375 12.5-1.799 3.705-4.433 6.799-6.581 10.152-2.901 4.529.9 4.774 4.63 5.374 3.943.635 7.468 1.937 11.612 1.932 3.571-.005 6.709.346 10.133 0 3.598-.362 6.364 1.56 9.557-.967-2.005-3.833-5.281-7.058-7.686-10.692-3.847-5.818-6.596-11.164-7.922-18.105-.714-3.725-1.472-7.011-1.438-10.874.035-3.908 1.573-6.626 3.14-10.084" fill="#00003B"/><path d="M201.603 92.53c-2.138 2.19-4.715 3.316-6.581 5.795-1.534 2.037-3.063 4.283-4.236 6.522-2.589 4.947-3.541 10.184-4.152 15.692-.516 4.65-1.313 8.252-3.375 12.5-1.799 3.705-4.433 6.799-6.581 10.152-2.901 4.529.9 4.774 4.63 5.374 3.943.635 7.468 1.937 11.612 1.932 3.571-.005 6.709.346 10.133 0 3.598-.362 6.364 1.56 9.557-.967-2.005-3.833-5.281-7.058-7.686-10.692-3.847-5.818-6.596-11.164-7.922-18.105-.714-3.725-1.472-7.011-1.438-10.874.035-3.908 1.573-6.626 3.14-10.084" stroke="#000" stroke-width=".25" stroke-miterlimit="20"/><path d="M208.849 87.94c-10.34 4.274-17.403 14.457-17.391 25.589.008 7.557 2.713 13.176 6.265 19.744 3.052 5.64 8.523 9.803 11.313 15.345.943 1.874.81 3.404 3.424 3.348 1.037-.024 2.324-.95 3.386-1.167 1.214-.25 2.443-.066 3.63-.297 1.94-.375 3.854-.811 5.797-1.267 2.037-.478 3.819-1.866 6.002-1.914-.419-2.097-.421-4.448-.887-6.456 1.488 1.48 2.532 3.79 3.871 5.49 3.93-1.568 7.929-3.247 11.772-4.863 1.685-.71 3.019-1.688 4.591-2.643 1.916-1.163 2.927-1.091 1.897-3.316-3.132-6.767-14.558-11.773-11.364-20.36 1.145-3.078 2.111-2.937-.611-5.08-3.103-2.444-4.803-6.443-8.024-8.628" fill="#001D56"/><path d="M208.849 87.94c-10.34 4.274-17.403 14.457-17.391 25.589.008 7.557 2.713 13.176 6.265 19.744 3.052 5.64 8.523 9.803 11.313 15.345.943 1.874.81 3.404 3.424 3.348 1.037-.024 2.324-.95 3.386-1.167 1.214-.25 2.443-.066 3.63-.297 1.94-.375 3.854-.811 5.797-1.267 2.037-.478 3.819-1.866 6.002-1.914-.419-2.097-.421-4.448-.887-6.456 1.488 1.48 2.532 3.79 3.871 5.49 3.93-1.568 7.929-3.247 11.772-4.863 1.685-.71 3.019-1.688 4.591-2.643 1.916-1.163 2.927-1.091 1.897-3.316-3.132-6.767-14.558-11.773-11.364-20.36 1.145-3.078 2.111-2.937-.611-5.08-3.103-2.444-4.803-6.443-8.024-8.628" stroke="#000" stroke-width=".25" stroke-miterlimit="20"/><path d="M195.927 5.635c-2.159-.55-5.574-.167-7.794.137-2.088.286-4.294.804-6.336 1.635-1.866.76-3.796 1.496-5.796 1.49-1.081-.005-4.975-.45-4.499 1.78 1.408.561 2.615.497 4.135.574.818.042 3.867-.238 4.488.218 1.772 1.3-.816 1.742-1.73 1.996-1.381.382-2.773.896-4.022 1.625-1.079.63-6.71 3.61-5.266 4.503 1.47.907 6.457-1.593 7.961-1.968-1.085 3.237-8.957 2.17-8.649 6.095 4.863 1.43 9.978-4.174 14.624-4.65-.284 1.531-5.874 2.901-7.411 3.73-1.836.99-6.202 3.813-1.263 3.82 5.725.004 10.274-5.314 16.122-4.863 2.11.164 1.678.87.59 2.406-.926 1.31-1.671 2.412-1.857 4.117-.379 3.473 2.635 6.01 3.257 1.45.48-3.528 4.269-3.614 5.403-6.784.968-2.71-.559-6.37 3.668-6.773 3.255-.31 7.131.652 10.529.33 4.147-.39 8.156-.153 12.335.042 4.277.2 8.261-.903 12.45-1.317 3.896-.387 5.205 1.87 7.61 4.493 2.572 2.803 4.792 5.812 7.435 8.553 1.548 1.603 3.949 4.468 6.119 5.054.268-1.582 2.111-3.012 3.024-4.324 1.112-1.6 2.014-3.307 3.122-4.89 1.625-2.322 3.489-4.612 4.773-7.065-1.758-2.48-4.977-3.266-7.305-5.023-2.698-2.037-5.657-3.222-8.614-4.81-5.114-2.745-9.512-7.067-15.8-6.07-7.071 1.123-14.631-.057-21.745 1.093-3.518.568-7.222.945-10.723 1.722-3.306.734-5.785 1.663-9.207 1.503-.703-.034-1.102-.4-1.802-.19" fill="#DBA16D"/><path d="M195.927 5.635c-2.159-.55-5.574-.167-7.794.137-2.088.286-4.294.804-6.336 1.635-1.866.76-3.796 1.496-5.796 1.49-1.081-.005-4.975-.45-4.499 1.78 1.408.561 2.615.497 4.135.574.818.042 3.867-.238 4.488.218 1.772 1.3-.816 1.742-1.73 1.996-1.381.382-2.773.896-4.022 1.625-1.079.63-6.71 3.61-5.266 4.503 1.47.907 6.457-1.593 7.961-1.968-1.085 3.237-8.957 2.17-8.649 6.095 4.863 1.43 9.978-4.174 14.624-4.65-.284 1.531-5.874 2.901-7.411 3.73-1.836.99-6.202 3.813-1.263 3.82 5.725.004 10.274-5.314 16.122-4.863 2.11.164 1.678.87.59 2.406-.926 1.31-1.671 2.412-1.857 4.117-.379 3.473 2.635 6.01 3.257 1.45.48-3.528 4.269-3.614 5.403-6.784.968-2.71-.559-6.37 3.668-6.773 3.255-.31 7.131.652 10.529.33 4.147-.39 8.156-.153 12.335.042 4.277.2 8.261-.903 12.45-1.317 3.896-.387 5.205 1.87 7.61 4.493 2.572 2.803 4.792 5.812 7.435 8.553 1.548 1.603 3.949 4.468 6.119 5.054.268-1.582 2.111-3.012 3.024-4.324 1.112-1.6 2.014-3.307 3.122-4.89 1.625-2.322 3.489-4.612 4.773-7.065-1.758-2.48-4.977-3.266-7.305-5.023-2.698-2.037-5.657-3.222-8.614-4.81-5.114-2.745-9.512-7.067-15.8-6.07-7.071 1.123-14.631-.057-21.745 1.093-3.518.568-7.222.945-10.723 1.722-3.306.734-5.785 1.663-9.207 1.503-.703-.034-1.102-.4-1.802-.19" stroke="#DDBA92" stroke-width=".25" stroke-miterlimit="20"/><path d="M357.152 42.68c-1.779-.78-3.328-1.393-5.027-2.356-1.674-.95-3.576-1.505-5.389-2.06-1.457-.447-3.176-.566-4.529-1.176-2.256-1.017 1.254-2.058 2.265-2.115 2.331-.133 8.463 3.12 7.067-1.983-.912-3.328-2.432-6.51-3.694-9.644-.339-.838-1.033-3.125.249-3.56 1.21-.412 2.134 1.68 2.56 2.515 1.238 2.443 2.195 5.047 3.525 7.412.102.018.174.038.256.072.338-1.273-1.166-3.568-1.656-4.818-.58-1.485-1.072-2.894-1.695-4.296-.442-.99-1.699-2.91-.881-3.965 1.213-1.562 2.803 1.628 3.258 2.516.802 1.568 1.66 3.226 2.261 4.87.516 1.41.86 2.84 1.817 4.087.648-.64-1.463-4.526-1.836-5.426-.627-1.506-1.666-3.242-1.924-4.89-.371-2.36 1.906-1.415 2.809-.272.74.94 1.039 2.15 1.535 3.236.43.94.957 1.76 1.271 2.743.25.784.803 3.845 1.727 3.97.371-.8-.543-1.903-.875-2.618-.401-.866-.699-1.806-.988-2.713-.188-.584-.768-1.53-.459-2.17.455-.948 1.164-.377 1.683.114 2.36 2.217 3.375 5.336 4.975 7.966 1.517 2.492 2.592 5.142 2.746 8.04a16.593 16.593 0 01-.293 3.897c-1.012 5.14-6.043 41.3-12.025 48.003-5.02 5.624-43.575-.187-44.207-.86a6.066 6.066 0 01-.33-.076c.253-3.45 3.003-7.453 5.058-10.163 1.047-1.38 1.911-3.395 3.252-4.48 1.013-.818 2.225-.832 3.618-.905 3.114-.164 17.677 2.24 19.015 1.584 2.109-1.028 3.849-4.876 4.853-6.838 1.455-2.856 8.92-16.484 10.008-23.187" fill="#DBA16D"/><path d="M357.152 42.68c-1.779-.78-3.328-1.393-5.027-2.356-1.674-.95-3.576-1.505-5.389-2.06-1.457-.447-3.176-.566-4.529-1.176-2.256-1.017 1.254-2.058 2.265-2.115 2.331-.133 8.463 3.12 7.067-1.983-.912-3.328-2.432-6.51-3.694-9.644-.339-.838-1.033-3.125.249-3.56 1.21-.412 2.134 1.68 2.56 2.515 1.238 2.443 2.195 5.047 3.525 7.412.102.018.174.038.256.072.338-1.273-1.166-3.568-1.656-4.818-.58-1.485-1.072-2.894-1.695-4.296-.442-.99-1.699-2.91-.881-3.965 1.213-1.562 2.803 1.628 3.258 2.516.802 1.568 1.66 3.226 2.261 4.87.516 1.41.86 2.84 1.817 4.087.648-.64-1.463-4.526-1.836-5.426-.627-1.506-1.666-3.242-1.924-4.89-.371-2.36 1.906-1.415 2.809-.272.74.94 1.039 2.15 1.535 3.236.43.94.957 1.76 1.271 2.743.25.784.803 3.845 1.727 3.97.371-.8-.543-1.903-.875-2.618-.401-.866-.699-1.806-.988-2.713-.188-.584-.768-1.53-.459-2.17.455-.948 1.164-.377 1.683.114 2.36 2.217 3.375 5.336 4.975 7.966 1.517 2.492 2.592 5.142 2.746 8.04a16.593 16.593 0 01-.293 3.897c-1.012 5.14-6.043 41.3-12.025 48.003-5.02 5.624-43.575-.187-44.207-.86a6.066 6.066 0 01-.33-.076c.253-3.45 3.003-7.453 5.058-10.163 1.047-1.38 1.911-3.395 3.252-4.48 1.013-.818 2.225-.832 3.618-.905 3.114-.164 17.677 2.24 19.015 1.584 2.109-1.028 3.849-4.876 4.853-6.838 1.455-2.856 8.92-16.484 10.008-23.187m3.623-13.224c-.584 2.282-.99 7.698 2.172 8.695m-7.062-3.985c1.599 1.317 4.869 3.028 4.709 5.615m-3.442 2.718c1.766.187 3.774.772 5.072-.725" stroke="#DDBA92" stroke-width=".25" stroke-miterlimit="20"/><path d="M241.214 112.173c-3.87-2.791-6.085-6.338-10.345-9.057-3.498-2.234-8.059-4.444-10.416-8.05 1.954-.506 2.456-1.666 4.745-1.716-3.804-7.326-10.485-4.94-2.263-13.08 5.321-5.267 12.056-7.065 17.414-11.556 5.975-5.006 20.061-28.7 29.231-24.764-4.948-7.847-5.318-18.99.435-26.766-.764-.53-1.514-1.002-1.754-.986-.11 0-.188-.043-.236-.127-.112.105-.284.15-.443.174-1.418 4.948-4.587 8.58-7.716 12.577-1.31 1.674-3.711 2.595-2.649 4.95.377.835 2.646 3.92 3.592 4.404-2.777 3.488-5.848 6.49-8.671 9.915-3.784 4.59-8.34 7.767-12.676 11.89-4.819 4.583-9.071 9.32-14.371 13.224-3.657 2.695-7.669 4.906-11.102 7.97-3.002 2.68-8.156 6.356-3.691 9.366 4.407 2.97 9.456 5.24 13.298 9.01 2.059 2.022 4.558 3.929 6.508 6.062 1.833 2.002 2.965 5.104 5.374 6.497 2.015 1.167 3.63 2.744 5.495 4.088 1.434 1.035 4.725 4.059 6.28 4.832 2.683 1.33 6.232-3.335 8.952-6.31-5.787.473-11.678-.158-14.991-2.547z" fill="#C7BB1B"/><path d="M311.007 72.48c-2.732-1.236-2.122-4.733-3.847-6.768-1.786-2.11-4.608-1.965-6.11-5.013-1.178-2.387-1.106-6.366-2.592-8.266l-.966-3.864c-2.336-3.38-3.294-7.075-5.556-10.574-2.001-3.094-3.946-6.178-6.037-9.22-2.449-3.564-4.787-4.886-8.701-7.023a67.72 67.72 0 01-5.262-3.18c-.184-.124-1.061-.79-1.921-1.388-5.753 7.777-5.383 18.92-.435 26.766-9.17-3.937-23.256 19.758-29.231 24.764-5.358 4.49-12.093 6.29-17.414 11.557-8.222 8.14-1.541 5.753 2.263 13.08-2.289.05-2.791 1.21-4.745 1.716 2.357 3.605 6.918 5.815 10.416 8.049 4.26 2.719 6.475 6.266 10.345 9.057 3.313 2.389 9.204 3.02 14.991 2.547.787-.86 1.503-1.578 2.111-1.97 3.562-2.3 5.884-5.698 9.775-7.354 3.755-1.596 6.833-3.623 10.139-5.803 3.303-2.18 7.302-3.59 10.568-6.033 2.748-2.055 4.61-5.654 7.984-6.574 4.389-1.2 7.439-.29 11.767.524 2.053.385 3.449 1.974 4.71-.054.788-1.267 1.151-3.982 1.684-5.5.668-1.903 1.181-3.766 2.301-5.61.91-1.5 2.737-3.133 2.91-4.8-2.456.454-6.57 2.1-9.147.933z" fill="#FFF23B"/><path d="M337.769 53.912c1.119 3.457-1.49 7.136-3.424 9.714-.787 1.046-1.564 2.09-2.74 2.693-1.34.69-2.416.98-3.14 2.54-.768 1.66-.545 5.51-3.1 5.89-1.088.162-2.185-1.165-3.177-.846-.552.176-.666.846-1.108 1.096-.585.33-1.012.084-1.592.034-.467 1.616-2.303.61-3.455.615-1.367.008-2.583 1.253-3.988 1.457-3.478.503-4.181-3.342-4.911-5.893-.29-1.015-.682-3.522-1.812-3.967-.599-.236-1.545.132-2.154.163-.967.05-1.331-.247-2.083-.727-.697-.444-1.257-.47-2.084-.43-.589.03-1.636.44-2.178.256-1.34-.457-.249-2.857.028-3.81.7-2.41-1.045-4.278-.729-6.658.183-1.384.598-2.655.525-4.122-.069-1.38-.422-2.673-.349-4.06 1.113-.293 2.45-.51 3.521-.896 1.086-.392 1.922-1.192 2.897-1.753.671.543.755 1.222 1.629 1.545.828.304 1.688.444 2.517.728 1.77.61 3.155-.16 4.75-.79 2.32-.917 6.867-4.234 8.567-.437.722 1.61 1.269 3.3 1.019 5.127-.087.633-.149 1.353-.276 1.988-.132.658-.576 1.18-.725 1.816-.243 1.04.402.902 1.083.27 1.022-.945 1.553-1.954 2.901-2.424 1.885-.654 3.11-1.04 4.621-2.38.811-.72 1.712-.978 2.646-1.423 1.113-.532 2.096-.576 3.15.267.986.786 2.05 1.673 2.787 2.698.697.967.828 1.325.474 2.444" fill="#DBBDA6"/><path d="M337.769 53.912c1.119 3.457-1.49 7.136-3.424 9.714-.787 1.046-1.564 2.09-2.74 2.693-1.34.69-2.416.98-3.14 2.54-.768 1.66-.545 5.51-3.1 5.89-1.088.162-2.185-1.165-3.177-.846-.552.176-.666.846-1.108 1.096-.585.33-1.012.084-1.592.034-.467 1.616-2.303.61-3.455.615-1.367.008-2.583 1.253-3.988 1.457-3.478.503-4.181-3.342-4.911-5.893-.29-1.015-.682-3.522-1.812-3.967-.599-.236-1.545.132-2.154.163-.967.05-1.331-.247-2.083-.727-.697-.444-1.257-.47-2.084-.43-.589.03-1.636.44-2.178.256-1.34-.457-.249-2.857.028-3.81.7-2.41-1.045-4.278-.729-6.658.183-1.384.598-2.655.525-4.122-.069-1.38-.422-2.673-.349-4.06 1.113-.293 2.45-.51 3.521-.896 1.086-.392 1.922-1.192 2.897-1.753.671.543.755 1.222 1.629 1.545.828.304 1.688.444 2.517.728 1.77.61 3.155-.16 4.75-.79 2.32-.917 6.867-4.234 8.567-.437.722 1.61 1.269 3.3 1.019 5.127-.087.633-.149 1.353-.276 1.988-.132.658-.576 1.18-.725 1.816-.243 1.04.402.902 1.083.27 1.022-.945 1.553-1.954 2.901-2.424 1.885-.654 3.11-1.04 4.621-2.38.811-.72 1.712-.978 2.646-1.423 1.113-.532 2.096-.576 3.15.267.986.786 2.05 1.673 2.787 2.698.697.967.828 1.325.474 2.444" stroke="#AE9072" stroke-width=".25" stroke-miterlimit="20"/><path d="M302.534 45.127c.518 1.308 1.17 1.833 2.36 2.606.785.51 1.313.643 2.273.654 1.168.013 2.376.063 3.474-.34 1.155-.424 2.224-.934 3.394-1.285 1.878-.563 3.632-1.55 5.053.262 1.087 1.387 1.159 3.734.925 5.37-.184 1.292-.743 2.9-.527 4.202.829-.066 1.329-.652 1.886-1.235.264-.276.517-.612.816-.815.564-.383.803-.09 1.342-.247.686-.2 1.221-.98 1.831-1.403.678-.47 1.276-.52 1.989-.908 1.638-.892 2.923-1.85 4.874-1.97 1.506-.094 3.61.74 4.366 2.083.615 1.09.472 2.42 1.287 3.437 1.371 1.71 3.691 1.302 5.562 1.988a1.593 1.593 0 00-.281-.37c.105-.005.299.035.375-.074-1.164-.52-1.863-1.69-2.311-2.77.61.48 1.147.45 1.86.234-.649-.605-1.041-1.383-.967-2.277.865.783 5.064.857 5.695-.606-1.888.087-2.982-.59-3.904-2.186-.426-.738-.541-1.497-.861-2.267-.342-.817-.785-1.256-1.225-1.99-.48-.797-.267-1.78-.408-2.648-.221-1.382-1.203-2.485-1.84-3.704-1.213-2.315-2.457-4.416-4.432-6.17-6.875-6.11-17.707-4.426-23.75 1.942-2.03 2.14-3.846 4.402-5.66 6.702-.681.864-4.089 2.502-3.106 3.604" fill="#B00B00"/><path d="M342.842 73.386c2.771 3.395 4.451 7.458 9.056 6.16M232.52 152.67c5.699-.884 13.11-1.296 17.873 2.9" stroke="#DDBA92" stroke-width=".25" stroke-miterlimit="20"/><path d="M186.616 154.53c1.205.534.386 1.734-.078 2.422-.638.947-1.156 1.715-1.586 2.789-.968 2.427-1.103 4.84-.236 7.317.743 2.127 3.139 4.085 5.13 5.183 1.474.812 3.422 2.27 1.146 4.272-4.375 3.85-9.162 7.086-11.483 12.609-.799 1.903-1.207 3.683-1.228 5.725-.018 1.752-.015 4.058-.832 5.628-3.125.614-3.875-9.2-4.296-11.142-.53-2.444-.899-5.252-.418-7.73.56-2.895 1.503-5.644 2.01-8.554.957-5.493 2.171-11.336 1.033-16.852-.422-2.044-.88-3.313 1.671-3.438 1.751-.085 3.562.177 5.209.52 1.392.293 2.955 1.372 4.271 1.25" fill="#00476D"/><path d="M186.616 154.53c1.205.534.386 1.734-.078 2.422-.638.947-1.156 1.715-1.586 2.789-.968 2.427-1.103 4.84-.236 7.317.743 2.127 3.139 4.085 5.13 5.183 1.474.812 3.422 2.27 1.146 4.272-4.375 3.85-9.162 7.086-11.483 12.609-.799 1.903-1.207 3.683-1.228 5.725-.018 1.752-.015 4.058-.832 5.628-3.125.614-3.875-9.2-4.296-11.142-.53-2.444-.899-5.252-.418-7.73.56-2.895 1.503-5.644 2.01-8.554.957-5.493 2.171-11.336 1.033-16.852-.422-2.044-.88-3.313 1.671-3.438 1.751-.085 3.562.177 5.209.52 1.392.293 2.955 1.372 4.271 1.25" stroke="#DDBA92" stroke-width=".25" stroke-miterlimit="20"/><path d="M118.446 219.45c1.459-1.253 2.963-2.36 4.394-3.553.913-.762 2.093-2.775 3.182-2.968 1.401-.247 2.171 2.933 2.778 3.887 1.145 1.802 2.337 3.313 4.183 4.405 1.163.687 3.282 1.268 4.197 2.326 1.249 1.445-.998 2.544-1.774 3.596-.359.485-.508 1.536-.891 1.916-.426.42-1.743.613-2.368.749-2.077.452-4.721.319-6.772-.377-4.029-1.365-6.13-4.95-7.177-8.825" fill="#00006D"/><path d="M118.446 219.45c1.459-1.253 2.963-2.36 4.394-3.553.913-.762 2.093-2.775 3.182-2.968 1.401-.247 2.171 2.933 2.778 3.887 1.145 1.802 2.337 3.313 4.183 4.405 1.163.687 3.282 1.268 4.197 2.326 1.249 1.445-.998 2.544-1.774 3.596-.359.485-.508 1.536-.891 1.916-.426.42-1.743.613-2.368.749-2.077.452-4.721.319-6.772-.377-4.029-1.365-6.13-4.95-7.177-8.825" stroke="#00BA92" stroke-width=".25" stroke-miterlimit="20"/><path d="M319.472 75.197s-.076-.215-.23-.513c-.152-.29-.4-.665-.615-1.07l-.13-.32c-.049-.102-.052-.222-.079-.328a.68.68 0 01-.017-.314c.009-.1.02-.195.029-.28.008-.088.06-.157.084-.222.031-.063.056-.12.078-.163l.065-.14-.038.151-.042.17c-.01.068-.045.138-.046.22l.002.264a.81.81 0 00.039.285c.03.097.033.203.084.3l.132.297c.197.396.434.784.55 1.115.075.156.074.302.103.397.019.097.031.15.031.15v.001z" fill="#B00B00"/><path d="M317.479 56.267c1.762-4.302-3.973-6.728-5.55-2.15-.243.71-.253 1.403-.626 2.06-.391.687-.822 1.178-1.087 1.902-.638 1.74 1.611 1.937 2.734 1.086" fill="#DBBDA6"/><path d="M317.479 56.267c1.762-4.302-3.973-6.728-5.55-2.15-.243.71-.253 1.403-.626 2.06-.391.687-.822 1.178-1.087 1.902-.638 1.74 1.611 1.937 2.734 1.086m2.265-3.532c.263-3.432-3.799 1.715-1.449 1.27m-8.243 10.323c-1.465-.923-.543-4.53-.724-5.615" stroke="#9C6F5E" stroke-width=".25" stroke-miterlimit="20"/><path d="M148.031 155.44a2.478 2.478 0 01-1.533 2.295 2.486 2.486 0 01-.951.189H32.288a2.483 2.483 0 01-2.414-2.484 2.487 2.487 0 012.414-2.484h113.259a2.487 2.487 0 012.484 2.484zm-43.714 9.439c0 1.097-.89 1.986-1.987 1.986H1.987a1.985 1.985 0 01-1.405-3.392 1.99 1.99 0 011.405-.582H102.33c1.097 0 1.987.89 1.987 1.988zm23.844 11.921c0 1.098-.89 1.987-1.987 1.987H75.506a1.985 1.985 0 01-1.925-1.987 1.988 1.988 0 011.925-1.987h50.668c1.097 0 1.987.89 1.987 1.987zm-40.733 11.922a2.982 2.982 0 01-2.981 2.98H45.7a2.98 2.98 0 110-5.961h38.747a2.977 2.977 0 012.754 1.84c.15.361.227.749.227 1.14v.001zm15.896 19.373a2.485 2.485 0 01-2.484 2.484H72.029a2.481 2.481 0 01-2.295-3.434 2.48 2.48 0 012.295-1.533h28.811a2.483 2.483 0 012.484 2.483zm-14.903 14.903a2.482 2.482 0 01-2.484 2.483H9.438a2.482 2.482 0 01-1.756-4.239 2.483 2.483 0 011.756-.728h76.499a2.481 2.481 0 012.484 2.484zm7.948 17.386c0 1.098-.89 1.987-1.987 1.987H76.499a1.985 1.985 0 01-1.925-1.987 1.988 1.988 0 011.925-1.987h17.883c1.097 0 1.987.89 1.987 1.987zm-9.935 11.922c0 1.098-.89 1.987-1.987 1.987H57.622a1.988 1.988 0 01-1.986-1.986 1.988 1.988 0 011.986-1.987h26.825c1.097 0 1.987.889 1.987 1.986z" fill="#000"/></svg>