<svg width="48" height="88" fill="none" xmlns="http://www.w3.org/2000/svg"><rect x="6" y="6" width="36" height="76" rx="18" stroke="#606060" stroke-width="4"/><g filter="url(#filter0_d)"><circle cx="24" cy="26" r="1" fill="#FE0"/><circle cx="24" cy="33" r="2" fill="#FE0"/><circle cx="24" cy="43" r="4" fill="#FE0"/><g filter="url(#filter1_d)"><path d="M23.116 63.884a1.25 1.25 0 001.768 0l7.955-7.955a1.25 1.25 0 10-1.768-1.768L24 61.232l-7.071-7.07a1.25 1.25 0 10-1.768 1.767l7.955 7.955zM22.75 51v12h2.5V51h-2.5z" fill="#FE0"/></g><circle cx="24" cy="51" r="1.25" fill="#FE0"/></g><defs><filter id="filter0_d" x="10.795" y="22" width="26.41" height="50.25" filterUnits="userSpaceOnUse" color-interpolation-filters="sRGB"><feFlood flood-opacity="0" result="BackgroundImageFix"/><feColorMatrix in="SourceAlpha" values="0 0 0 0 0 0 0 0 0 0 0 0 0 0 0 0 0 0 127 0"/><feOffset dy="4"/><feGaussianBlur stdDeviation="2"/><feColorMatrix values="0 0 0 0 0 0 0 0 0 0 0 0 0 0 0 0 0 0 0.25 0"/><feBlend in2="BackgroundImageFix" result="effect1_dropShadow"/><feBlend in="SourceGraphic" in2="effect1_dropShadow" result="shape"/></filter><filter id="filter1_d" x="10.795" y="51" width="26.41" height="21.25" filterUnits="userSpaceOnUse" color-interpolation-filters="sRGB"><feFlood flood-opacity="0" result="BackgroundImageFix"/><feColorMatrix in="SourceAlpha" values="0 0 0 0 0 0 0 0 0 0 0 0 0 0 0 0 0 0 127 0"/><feOffset dy="4"/><feGaussianBlur stdDeviation="2"/><feColorMatrix values="0 0 0 0 0 0 0 0 0 0 0 0 0 0 0 0 0 0 0.25 0"/><feBlend in2="BackgroundImageFix" result="effect1_dropShadow"/><feBlend in="SourceGraphic" in2="effect1_dropShadow" result="shape"/></filter></defs></svg>